<svg id="svg" version="1.1" xmlns="http://www.w3.org/2000/svg" xmlns:xlink="http://www.w3.org/1999/xlink" width="50" height="50" viewBox="0, 0,400,400"><g id="svgg"><path id="path0" d="M209.200 216.996 C 209.200 394.463,209.114 386.449,210.972 383.000 C 211.387 382.230,211.863 381.600,212.031 381.600 C 212.199 381.600,212.462 381.030,212.615 380.333 C 212.768 379.637,213.239 378.695,213.662 378.241 C 214.085 377.787,214.534 377.007,214.659 376.508 C 214.784 376.009,215.047 375.600,215.243 375.600 C 215.440 375.600,215.600 375.330,215.600 375.000 C 215.600 374.670,215.777 374.400,215.992 374.400 C 216.208 374.400,216.498 373.950,216.636 373.400 C 216.774 372.850,217.047 372.400,217.243 372.400 C 217.440 372.400,217.600 372.040,217.600 371.600 C 217.600 371.160,217.760 370.800,217.957 370.800 C 218.153 370.800,218.426 370.350,218.564 369.800 C 218.702 369.250,218.992 368.800,219.208 368.800 C 219.423 368.800,219.600 368.530,219.600 368.200 C 219.600 367.870,219.760 367.600,219.957 367.600 C 220.153 367.600,220.436 367.105,220.586 366.500 C 220.736 365.895,221.185 365.040,221.584 364.600 C 221.982 364.160,222.441 363.364,222.603 362.831 C 222.765 362.298,223.243 361.491,223.664 361.039 C 224.086 360.586,224.534 359.807,224.659 359.308 C 224.784 358.809,225.047 358.400,225.243 358.400 C 225.440 358.400,225.600 358.059,225.600 357.643 C 225.600 357.226,225.870 356.782,226.200 356.655 C 226.530 356.529,226.800 356.059,226.800 355.613 C 226.800 355.166,226.980 354.800,227.200 354.800 C 227.420 354.800,227.600 354.530,227.600 354.200 C 227.600 353.870,227.760 353.600,227.957 353.600 C 228.153 353.600,228.426 353.150,228.564 352.600 C 228.702 352.050,228.992 351.600,229.208 351.600 C 229.423 351.600,229.600 351.330,229.600 351.000 C 229.600 350.670,229.780 350.400,230.000 350.400 C 230.220 350.400,230.400 350.053,230.400 349.629 C 230.400 349.204,230.670 348.587,231.000 348.257 C 231.330 347.927,231.600 347.464,231.600 347.229 C 231.600 346.993,231.760 346.800,231.957 346.800 C 232.153 346.800,232.430 346.335,232.573 345.766 C 232.716 345.197,233.197 344.342,233.644 343.866 C 234.090 343.390,234.555 342.505,234.677 341.900 C 234.800 341.295,235.058 340.800,235.250 340.800 C 235.443 340.800,235.600 340.530,235.600 340.200 C 235.600 339.870,235.777 339.600,235.992 339.600 C 236.208 339.600,236.498 339.150,236.636 338.600 C 236.774 338.050,237.047 337.600,237.243 337.600 C 237.440 337.600,237.600 337.330,237.600 337.000 C 237.600 336.670,237.760 336.400,237.957 336.400 C 238.153 336.400,238.426 335.950,238.564 335.400 C 238.702 334.850,238.992 334.400,239.208 334.400 C 239.423 334.400,239.600 334.040,239.600 333.600 C 239.600 333.160,239.760 332.800,239.957 332.800 C 240.153 332.800,240.416 332.391,240.541 331.892 C 240.666 331.393,241.129 330.598,241.568 330.126 C 242.008 329.654,242.494 328.758,242.648 328.134 C 242.803 327.510,243.246 326.775,243.633 326.500 C 244.020 326.224,244.455 325.459,244.600 324.800 C 244.745 324.140,245.029 323.600,245.232 323.600 C 245.434 323.600,245.600 323.330,245.600 323.000 C 245.600 322.670,245.777 322.400,245.992 322.400 C 246.208 322.400,246.498 321.950,246.636 321.400 C 246.774 320.850,247.047 320.400,247.243 320.400 C 247.440 320.400,247.600 320.040,247.600 319.600 C 247.600 319.160,247.760 318.800,247.957 318.800 C 248.153 318.800,248.426 318.350,248.564 317.800 C 248.702 317.250,248.992 316.800,249.208 316.800 C 249.423 316.800,249.600 316.530,249.600 316.200 C 249.600 315.870,249.780 315.600,250.001 315.600 C 250.267 315.600,250.368 271.232,250.301 182.700 L 250.200 49.800 229.700 49.696 L 209.200 49.593 209.200 216.996 M5.837 50.739 C 5.722 50.926,5.959 51.435,6.365 51.870 C 6.770 52.305,7.236 53.084,7.400 53.600 C 7.564 54.116,8.043 54.909,8.464 55.361 C 8.886 55.814,9.343 56.638,9.480 57.192 C 9.617 57.746,10.040 58.421,10.419 58.691 C 10.798 58.961,11.226 59.651,11.370 60.225 C 11.515 60.799,11.992 61.654,12.432 62.126 C 12.871 62.598,13.334 63.393,13.459 63.892 C 13.584 64.391,13.847 64.800,14.043 64.800 C 14.240 64.800,14.400 65.048,14.400 65.351 C 14.400 65.654,14.670 66.126,15.000 66.400 C 15.330 66.674,15.600 67.236,15.600 67.649 C 15.600 68.062,15.780 68.400,16.000 68.400 C 16.220 68.400,16.400 68.670,16.400 69.000 C 16.400 69.330,16.577 69.600,16.792 69.600 C 17.008 69.600,17.298 70.050,17.436 70.600 C 17.574 71.150,17.847 71.600,18.043 71.600 C 18.240 71.600,18.400 71.870,18.400 72.200 C 18.400 72.530,18.577 72.800,18.792 72.800 C 19.008 72.800,19.298 73.250,19.436 73.800 C 19.574 74.350,19.847 74.800,20.043 74.800 C 20.240 74.800,20.400 75.160,20.400 75.600 C 20.400 76.040,20.577 76.400,20.792 76.400 C 21.008 76.400,21.298 76.850,21.436 77.400 C 21.574 77.950,21.847 78.400,22.043 78.400 C 22.240 78.400,22.400 78.670,22.400 79.000 C 22.400 79.330,22.577 79.600,22.792 79.600 C 23.008 79.600,23.298 80.050,23.436 80.600 C 23.574 81.150,23.847 81.600,24.043 81.600 C 24.240 81.600,24.400 81.870,24.400 82.200 C 24.400 82.530,24.577 82.800,24.792 82.800 C 25.008 82.800,25.298 83.250,25.436 83.800 C 25.574 84.350,25.847 84.800,26.043 84.800 C 26.240 84.800,26.400 85.160,26.400 85.600 C 26.400 86.040,26.577 86.400,26.792 86.400 C 27.008 86.400,27.298 86.850,27.436 87.400 C 27.574 87.950,27.847 88.400,28.043 88.400 C 28.240 88.400,28.400 88.670,28.400 89.000 C 28.400 89.330,28.560 89.600,28.757 89.600 C 28.953 89.600,29.226 90.050,29.364 90.600 C 29.502 91.150,29.792 91.600,30.008 91.600 C 30.223 91.600,30.400 91.870,30.400 92.200 C 30.400 92.530,30.580 92.800,30.800 92.800 C 31.020 92.800,31.200 93.166,31.200 93.613 C 31.200 94.059,31.470 94.529,31.800 94.655 C 32.130 94.782,32.400 95.226,32.400 95.643 C 32.400 96.059,32.560 96.400,32.757 96.400 C 32.953 96.400,33.226 96.850,33.364 97.400 C 33.502 97.950,33.792 98.400,34.008 98.400 C 34.223 98.400,34.400 98.670,34.400 99.000 C 34.400 99.330,34.560 99.600,34.757 99.600 C 34.953 99.600,35.216 100.009,35.341 100.508 C 35.466 101.007,35.918 101.790,36.343 102.247 C 36.769 102.704,37.184 103.421,37.264 103.839 C 37.407 104.582,38.660 104.602,89.105 104.702 L 140.800 104.803 140.800 77.602 L 140.800 50.400 73.424 50.400 C 36.367 50.400,5.953 50.553,5.837 50.739 M155.600 183.177 C 155.600 312.314,155.620 315.969,156.346 316.477 C 156.757 316.765,157.221 317.585,157.378 318.300 C 157.535 319.015,157.829 319.600,158.032 319.600 C 158.234 319.600,158.400 319.870,158.400 320.200 C 158.400 320.530,158.577 320.800,158.792 320.800 C 159.008 320.800,159.298 321.250,159.436 321.800 C 159.574 322.350,159.847 322.800,160.043 322.800 C 160.240 322.800,160.400 323.160,160.400 323.600 C 160.400 324.040,160.577 324.400,160.792 324.400 C 161.008 324.400,161.298 324.850,161.436 325.400 C 161.574 325.950,161.847 326.400,162.043 326.400 C 162.240 326.400,162.400 326.670,162.400 327.000 C 162.400 327.330,162.560 327.600,162.757 327.600 C 162.953 327.600,163.226 328.050,163.364 328.600 C 163.502 329.150,163.792 329.600,164.008 329.600 C 164.223 329.600,164.400 329.870,164.400 330.200 C 164.400 330.530,164.558 330.800,164.750 330.800 C 164.942 330.800,165.200 331.295,165.323 331.900 C 165.445 332.505,165.910 333.390,166.356 333.866 C 166.803 334.342,167.284 335.197,167.427 335.766 C 167.570 336.335,167.847 336.800,168.043 336.800 C 168.240 336.800,168.400 337.048,168.400 337.351 C 168.400 337.654,168.670 338.126,169.000 338.400 C 169.330 338.674,169.600 339.236,169.600 339.649 C 169.600 340.062,169.780 340.400,170.000 340.400 C 170.220 340.400,170.400 340.670,170.400 341.000 C 170.400 341.330,170.577 341.600,170.792 341.600 C 171.008 341.600,171.298 342.050,171.436 342.600 C 171.574 343.150,171.847 343.600,172.043 343.600 C 172.240 343.600,172.400 343.870,172.400 344.200 C 172.400 344.530,172.580 344.800,172.800 344.800 C 173.020 344.800,173.200 345.166,173.200 345.613 C 173.200 346.059,173.470 346.529,173.800 346.655 C 174.130 346.782,174.400 347.226,174.400 347.643 C 174.400 348.059,174.560 348.400,174.757 348.400 C 174.953 348.400,175.235 348.884,175.383 349.476 C 175.532 350.068,175.989 350.844,176.400 351.200 C 176.811 351.556,177.278 352.371,177.438 353.010 C 177.599 353.650,178.068 354.536,178.481 354.979 C 178.893 355.422,179.334 356.193,179.459 356.692 C 179.584 357.191,179.847 357.600,180.043 357.600 C 180.240 357.600,180.400 357.870,180.400 358.200 C 180.400 358.530,180.577 358.800,180.792 358.800 C 181.008 358.800,181.298 359.250,181.436 359.800 C 181.574 360.350,181.847 360.800,182.043 360.800 C 182.240 360.800,182.400 361.160,182.400 361.600 C 182.400 362.040,182.560 362.400,182.757 362.400 C 182.953 362.400,183.226 362.850,183.364 363.400 C 183.502 363.950,183.792 364.400,184.008 364.400 C 184.223 364.400,184.400 364.670,184.400 365.000 C 184.400 365.330,184.566 365.600,184.768 365.600 C 184.971 365.600,185.255 366.140,185.400 366.800 C 185.545 367.459,185.980 368.224,186.367 368.500 C 186.754 368.775,187.197 369.510,187.352 370.134 C 187.506 370.758,187.992 371.654,188.432 372.126 C 188.871 372.598,189.334 373.393,189.459 373.892 C 189.584 374.391,189.847 374.800,190.043 374.800 C 190.240 374.800,190.400 375.141,190.400 375.557 C 190.400 375.974,190.670 376.418,191.000 376.545 C 191.330 376.671,191.600 377.141,191.600 377.587 C 191.600 378.034,191.780 378.400,192.000 378.400 C 192.220 378.400,192.400 378.670,192.400 379.000 C 192.400 379.330,192.560 379.600,192.757 379.600 C 192.953 379.600,193.226 380.050,193.364 380.600 C 193.502 381.150,193.792 381.600,194.008 381.600 C 194.223 381.600,194.400 381.870,194.400 382.200 C 194.400 382.530,194.580 382.800,194.800 382.800 C 195.020 382.800,195.200 383.160,195.200 383.600 C 195.200 384.133,195.467 384.400,196.000 384.400 C 196.799 384.400,196.800 384.133,196.800 217.400 L 196.800 50.400 176.200 50.400 L 155.600 50.400 155.600 183.177 M261.600 77.600 L 261.600 104.800 289.373 104.800 C 316.552 104.800,317.151 104.817,317.394 105.580 C 317.530 106.008,317.983 106.467,318.400 106.600 C 318.817 106.733,319.267 107.183,319.400 107.600 C 319.533 108.017,319.983 108.467,320.400 108.600 C 320.817 108.733,321.267 109.183,321.400 109.600 C 321.533 110.017,321.983 110.467,322.400 110.600 C 322.817 110.733,323.267 111.183,323.400 111.600 C 323.533 112.017,323.983 112.467,324.400 112.600 C 324.817 112.733,325.267 113.183,325.400 113.600 C 325.533 114.017,325.983 114.467,326.400 114.600 C 326.817 114.733,327.270 115.192,327.406 115.620 C 327.543 116.049,327.822 116.400,328.027 116.400 C 328.250 116.400,328.400 121.855,328.400 130.000 C 328.400 138.145,328.250 143.600,328.027 143.600 C 327.822 143.600,327.543 143.951,327.406 144.380 C 327.270 144.808,326.817 145.267,326.400 145.400 C 325.983 145.533,325.533 145.983,325.400 146.400 C 325.267 146.817,324.817 147.267,324.400 147.400 C 323.983 147.533,323.533 147.983,323.400 148.400 C 323.267 148.817,322.817 149.267,322.400 149.400 C 321.983 149.533,321.533 149.983,321.400 150.400 C 321.267 150.817,320.817 151.267,320.400 151.400 C 319.983 151.533,319.533 151.983,319.400 152.400 C 319.267 152.817,318.817 153.267,318.400 153.400 C 317.983 153.533,317.530 153.992,317.394 154.420 C 317.151 155.183,316.555 155.200,289.773 155.200 L 262.400 155.200 262.400 182.400 L 262.400 209.600 297.822 209.600 L 333.244 209.600 345.774 197.067 C 352.665 190.174,358.425 184.153,358.572 183.687 C 358.720 183.222,359.183 182.733,359.600 182.600 C 360.017 182.467,360.467 182.017,360.600 181.600 C 360.733 181.183,361.183 180.733,361.600 180.600 C 362.017 180.467,362.467 180.017,362.600 179.600 C 362.733 179.183,363.183 178.733,363.600 178.600 C 364.017 178.467,364.467 178.017,364.600 177.600 C 364.733 177.183,365.183 176.733,365.600 176.600 C 366.017 176.467,366.467 176.017,366.600 175.600 C 366.733 175.183,367.183 174.733,367.600 174.600 C 368.017 174.467,368.467 174.017,368.600 173.600 C 368.733 173.183,369.183 172.733,369.600 172.600 C 370.017 172.467,370.467 172.017,370.600 171.600 C 370.733 171.183,371.183 170.733,371.600 170.600 C 372.017 170.467,372.467 170.017,372.600 169.600 C 372.733 169.183,373.183 168.733,373.600 168.600 C 374.017 168.467,374.467 168.017,374.600 167.600 C 374.733 167.183,375.183 166.733,375.600 166.600 C 376.017 166.467,376.467 166.017,376.600 165.600 C 376.733 165.183,377.183 164.733,377.600 164.600 C 378.017 164.467,378.467 164.017,378.600 163.600 C 378.733 163.183,379.183 162.733,379.600 162.600 C 380.017 162.467,380.470 162.008,380.606 161.580 C 380.743 161.151,381.009 160.800,381.198 160.800 C 382.807 160.800,382.800 160.943,382.800 129.750 L 382.800 99.956 358.020 75.178 L 333.240 50.400 297.420 50.400 L 261.600 50.400 261.600 77.600 " stroke="none" fill="#1c1c1c" fill-rule="evenodd"></path><path id="path1" d="" stroke="none" fill="#201c1c" fill-rule="evenodd"></path><path id="path2" d="" stroke="none" fill="#201c1c" fill-rule="evenodd"></path><path id="path3" d="" stroke="none" fill="#201c1c" fill-rule="evenodd"></path><path id="path4" d="" stroke="none" fill="#201c1c" fill-rule="evenodd"></path></g></svg>